<svg xmlns="http://www.w3.org/2000/svg" xmlns:xlink="http://www.w3.org/1999/xlink" width="250" zoomAndPan="magnify" viewBox="0 0 187.5 187.499992" height="250" preserveAspectRatio="xMidYMid meet" version="1.0"><defs><clipPath id="57fb466334"><path d="M 10.601562 10.601562 L 176.660156 10.601562 L 176.660156 176.660156 L 10.601562 176.660156 Z M 10.601562 10.601562 " clip-rule="nonzero"/></clipPath></defs><g clip-path="url(#57fb466334)"><path fill="#108903" d="M 176.386719 93.496094 C 176.386719 94.851562 176.351562 96.207031 176.285156 97.5625 C 176.21875 98.917969 176.117188 100.269531 175.984375 101.621094 C 175.851562 102.96875 175.6875 104.316406 175.488281 105.65625 C 175.289062 107 175.058594 108.335938 174.792969 109.667969 C 174.527344 110.996094 174.230469 112.320312 173.902344 113.636719 C 173.570312 114.953125 173.210938 116.257812 172.816406 117.558594 C 172.421875 118.855469 171.996094 120.144531 171.539062 121.421875 C 171.082031 122.699219 170.59375 123.960938 170.074219 125.214844 C 169.554688 126.46875 169.007812 127.710938 168.425781 128.933594 C 167.847656 130.160156 167.238281 131.375 166.597656 132.570312 C 165.957031 133.765625 165.289062 134.945312 164.59375 136.109375 C 163.894531 137.273438 163.167969 138.417969 162.414062 139.546875 C 161.660156 140.675781 160.882812 141.78125 160.074219 142.871094 C 159.265625 143.960938 158.429688 145.03125 157.570312 146.078125 C 156.710938 147.128906 155.824219 148.15625 154.914062 149.160156 C 154 150.164062 153.066406 151.148438 152.105469 152.105469 C 151.148438 153.066406 150.164062 154 149.160156 154.914062 C 148.15625 155.824219 147.128906 156.710938 146.078125 157.570312 C 145.03125 158.429688 143.960938 159.265625 142.871094 160.074219 C 141.78125 160.882812 140.675781 161.660156 139.546875 162.414062 C 138.417969 163.167969 137.273438 163.894531 136.109375 164.59375 C 134.945312 165.289062 133.765625 165.957031 132.570312 166.597656 C 131.375 167.238281 130.160156 167.847656 128.933594 168.425781 C 127.710938 169.007812 126.46875 169.554688 125.214844 170.074219 C 123.960938 170.59375 122.699219 171.082031 121.421875 171.539062 C 120.144531 171.996094 118.855469 172.421875 117.558594 172.816406 C 116.257812 173.210938 114.953125 173.570312 113.636719 173.902344 C 112.320312 174.230469 110.996094 174.527344 109.667969 174.792969 C 108.335938 175.058594 107 175.289062 105.660156 175.488281 C 104.316406 175.6875 102.96875 175.851562 101.621094 175.984375 C 100.269531 176.117188 98.917969 176.21875 97.5625 176.285156 C 96.207031 176.351562 94.851562 176.386719 93.496094 176.386719 C 92.140625 176.386719 90.785156 176.351562 89.429688 176.285156 C 88.074219 176.21875 86.722656 176.117188 85.371094 175.984375 C 84.019531 175.851562 82.675781 175.6875 81.332031 175.488281 C 79.992188 175.289062 78.65625 175.058594 77.324219 174.792969 C 75.996094 174.527344 74.671875 174.230469 73.355469 173.902344 C 72.039062 173.570312 70.734375 173.210938 69.433594 172.816406 C 68.136719 172.421875 66.847656 171.996094 65.570312 171.539062 C 64.292969 171.082031 63.027344 170.59375 61.777344 170.074219 C 60.523438 169.554688 59.28125 169.007812 58.054688 168.425781 C 56.828125 167.847656 55.617188 167.238281 54.421875 166.597656 C 53.226562 165.957031 52.046875 165.289062 50.882812 164.59375 C 49.71875 163.894531 48.574219 163.167969 47.445312 162.414062 C 46.316406 161.660156 45.207031 160.882812 44.117188 160.074219 C 43.03125 159.265625 41.960938 158.429688 40.910156 157.570312 C 39.863281 156.710938 38.835938 155.824219 37.832031 154.914062 C 36.824219 154 35.84375 153.066406 34.882812 152.105469 C 33.925781 151.148438 32.988281 150.164062 32.078125 149.160156 C 31.167969 148.15625 30.28125 147.128906 29.421875 146.078125 C 28.5625 145.03125 27.726562 143.960938 26.917969 142.871094 C 26.109375 141.78125 25.328125 140.675781 24.578125 139.546875 C 23.824219 138.417969 23.097656 137.273438 22.398438 136.109375 C 21.703125 134.945312 21.035156 133.765625 20.394531 132.570312 C 19.753906 131.375 19.144531 130.160156 18.566406 128.933594 C 17.984375 127.710938 17.4375 126.46875 16.917969 125.214844 C 16.398438 123.960938 15.910156 122.699219 15.453125 121.421875 C 14.996094 120.144531 14.570312 118.855469 14.175781 117.558594 C 13.78125 116.257812 13.421875 114.953125 13.089844 113.636719 C 12.761719 112.320312 12.464844 110.996094 12.199219 109.667969 C 11.933594 108.335938 11.703125 107 11.503906 105.65625 C 11.304688 104.316406 11.140625 102.96875 11.007812 101.621094 C 10.875 100.269531 10.773438 98.917969 10.707031 97.5625 C 10.640625 96.207031 10.605469 94.851562 10.605469 93.496094 C 10.605469 92.140625 10.640625 90.785156 10.707031 89.429688 C 10.773438 88.074219 10.875 86.722656 11.007812 85.371094 C 11.140625 84.019531 11.304688 82.675781 11.503906 81.332031 C 11.703125 79.992188 11.933594 78.65625 12.199219 77.324219 C 12.464844 75.996094 12.761719 74.671875 13.089844 73.355469 C 13.421875 72.039062 13.78125 70.734375 14.175781 69.433594 C 14.570312 68.136719 14.996094 66.847656 15.453125 65.570312 C 15.910156 64.292969 16.398438 63.027344 16.917969 61.777344 C 17.4375 60.523438 17.984375 59.28125 18.566406 58.054688 C 19.144531 56.828125 19.753906 55.617188 20.394531 54.421875 C 21.035156 53.226562 21.703125 52.046875 22.398438 50.882812 C 23.097656 49.71875 23.824219 48.574219 24.578125 47.445312 C 25.328125 46.316406 26.109375 45.207031 26.917969 44.117188 C 27.726562 43.03125 28.5625 41.960938 29.421875 40.910156 C 30.28125 39.863281 31.167969 38.835938 32.078125 37.832031 C 32.988281 36.824219 33.925781 35.84375 34.882812 34.882812 C 35.84375 33.925781 36.824219 32.988281 37.832031 32.078125 C 38.835938 31.167969 39.863281 30.28125 40.910156 29.421875 C 41.960938 28.5625 43.03125 27.726562 44.117188 26.917969 C 45.207031 26.109375 46.316406 25.328125 47.445312 24.578125 C 48.574219 23.824219 49.71875 23.097656 50.882812 22.398438 C 52.046875 21.703125 53.226562 21.035156 54.421875 20.394531 C 55.617188 19.753906 56.828125 19.144531 58.054688 18.566406 C 59.28125 17.984375 60.523438 17.4375 61.777344 16.917969 C 63.027344 16.398438 64.292969 15.910156 65.570312 15.453125 C 66.847656 14.996094 68.136719 14.570312 69.433594 14.175781 C 70.734375 13.78125 72.039062 13.421875 73.355469 13.089844 C 74.671875 12.761719 75.996094 12.464844 77.324219 12.199219 C 78.65625 11.933594 79.992188 11.703125 81.332031 11.503906 C 82.675781 11.304688 84.019531 11.140625 85.371094 11.007812 C 86.722656 10.875 88.074219 10.773438 89.429688 10.707031 C 90.785156 10.640625 92.140625 10.605469 93.496094 10.605469 C 94.851562 10.605469 96.207031 10.640625 97.5625 10.707031 C 98.917969 10.773438 100.269531 10.875 101.621094 11.007812 C 102.96875 11.140625 104.316406 11.304688 105.660156 11.503906 C 107 11.703125 108.335938 11.933594 109.667969 12.199219 C 110.996094 12.464844 112.320312 12.761719 113.636719 13.089844 C 114.953125 13.421875 116.257812 13.78125 117.558594 14.175781 C 118.855469 14.570312 120.144531 14.996094 121.421875 15.453125 C 122.699219 15.910156 123.960938 16.398438 125.214844 16.917969 C 126.46875 17.4375 127.710938 17.984375 128.933594 18.566406 C 130.160156 19.144531 131.375 19.753906 132.570312 20.394531 C 133.765625 21.035156 134.945312 21.703125 136.109375 22.398438 C 137.273438 23.097656 138.417969 23.824219 139.546875 24.578125 C 140.675781 25.328125 141.78125 26.109375 142.871094 26.917969 C 143.960938 27.726562 145.03125 28.5625 146.078125 29.421875 C 147.128906 30.28125 148.15625 31.167969 149.160156 32.078125 C 150.164062 32.988281 151.148438 33.925781 152.105469 34.882812 C 153.066406 35.84375 154 36.824219 154.914062 37.832031 C 155.824219 38.835938 156.710938 39.863281 157.570312 40.910156 C 158.429688 41.960938 159.265625 43.03125 160.074219 44.117188 C 160.882812 45.207031 161.660156 46.316406 162.414062 47.445312 C 163.167969 48.574219 163.894531 49.71875 164.59375 50.882812 C 165.289062 52.046875 165.957031 53.226562 166.597656 54.421875 C 167.238281 55.617188 167.847656 56.828125 168.425781 58.054688 C 169.007812 59.28125 169.554688 60.523438 170.074219 61.777344 C 170.59375 63.027344 171.082031 64.292969 171.539062 65.570312 C 171.996094 66.847656 172.421875 68.136719 172.816406 69.433594 C 173.210938 70.734375 173.570312 72.039062 173.902344 73.355469 C 174.230469 74.671875 174.527344 75.996094 174.792969 77.324219 C 175.058594 78.65625 175.289062 79.992188 175.488281 81.332031 C 175.6875 82.675781 175.851562 84.019531 175.984375 85.371094 C 176.117188 86.722656 176.21875 88.074219 176.285156 89.429688 C 176.351562 90.785156 176.386719 92.140625 176.386719 93.496094 Z M 176.386719 93.496094 " fill-opacity="1" fill-rule="nonzero"/></g><path fill="#ffffff" d="M 70.644531 65.3125 L 70.644531 121.679688 C 70.644531 124.546875 73.808594 126.292969 76.234375 124.765625 L 121.070312 96.585938 C 123.34375 95.152344 123.34375 91.839844 121.070312 90.40625 L 76.234375 62.226562 C 73.808594 60.699219 70.644531 62.445312 70.644531 65.3125 Z M 70.644531 65.3125 " fill-opacity="1" fill-rule="nonzero"/></svg>